<svg width="96" height="96" viewBox="0 0 96 96" fill="none" xmlns="http://www.w3.org/2000/svg">
<rect x="8" y="8" width="80" height="80" rx="40" fill="white"/>
<path d="M57.333 44.0002C57.6866 44.0002 58.0258 44.1406 58.2758 44.3907C58.5259 44.6407 58.6663 44.9799 58.6663 45.3335C58.6666 47.9315 57.7187 50.4403 56.0005 52.3891C54.2823 54.3378 51.9119 55.5924 49.3343 55.9175L49.333 58.6668H53.333C53.6866 58.6668 54.0258 58.8073 54.2758 59.0574C54.5259 59.3074 54.6663 59.6465 54.6663 60.0002C54.6663 60.3538 54.5259 60.6929 54.2758 60.943C54.0258 61.193 53.6866 61.3335 53.333 61.3335H42.6663C42.3127 61.3335 41.9736 61.193 41.7235 60.943C41.4735 60.6929 41.333 60.3538 41.333 60.0002C41.333 59.6465 41.4735 59.3074 41.7235 59.0574C41.9736 58.8073 42.3127 58.6668 42.6663 58.6668H46.6663V55.9175C44.0885 55.5927 41.7178 54.3382 39.9993 52.3895C38.2809 50.4407 37.3328 47.9317 37.333 45.3335C37.333 44.9799 37.4735 44.6407 37.7235 44.3907C37.9736 44.1406 38.3127 44.0002 38.6663 44.0002C39.02 44.0002 39.3591 44.1406 39.6091 44.3907C39.8592 44.6407 39.9997 44.9799 39.9997 45.3335C39.9997 47.4552 40.8425 49.4901 42.3428 50.9904C43.8431 52.4906 45.8779 53.3335 47.9997 53.3335C50.1214 53.3335 52.1562 52.4906 53.6565 50.9904C55.1568 49.4901 55.9997 47.4552 55.9997 45.3335C55.9997 44.9799 56.1402 44.6407 56.3902 44.3907C56.6402 44.1406 56.9794 44.0002 57.333 44.0002ZM47.9997 33.3335C49.4142 33.3335 50.7707 33.8954 51.7709 34.8956C52.7711 35.8958 53.333 37.2523 53.333 38.6668V45.3335C53.333 46.748 52.7711 48.1045 51.7709 49.1047C50.7707 50.1049 49.4142 50.6668 47.9997 50.6668C46.5852 50.6668 45.2286 50.1049 44.2284 49.1047C43.2282 48.1045 42.6663 46.748 42.6663 45.3335V38.6668C42.6663 37.2523 43.2282 35.8958 44.2284 34.8956C45.2286 33.8954 46.5852 33.3335 47.9997 33.3335Z" fill="#328187"/>
</svg>
