<svg width="96" height="96" viewBox="0 0 96 96" fill="none" xmlns="http://www.w3.org/2000/svg">
<rect width="96" height="96" rx="48" fill="#DAECF1"/>
<rect x="8" y="8" width="80" height="80" rx="40" fill="white"/>
<g clip-path="url(#clip0_2013_4376)">
<path d="M58.6668 47.1113H56.889C56.889 48.7113 56.4445 50.2224 55.6445 51.5558L56.9779 52.8891C58.0445 51.1113 58.5779 49.1558 58.6668 47.1113Z" fill="#328187"/>
<path d="M54.2227 47.1113V40.0002C54.2227 36.5335 51.3782 33.7779 47.9116 33.8668C45.3338 33.8668 42.9338 35.5557 42.1338 38.0446L53.6893 49.6002C54.0449 48.8002 54.2227 47.9113 54.2227 47.1113Z" fill="#328187"/>
<path d="M54.4004 55.6444L60.5337 61.7777L61.7782 60.5333L35.556 34.311L34.3115 35.5555L41.7782 43.0221V47.111C41.7782 50.5777 44.5337 53.3333 48.0004 53.3333C49.156 53.3333 50.2226 53.0666 51.2004 52.4444L53.156 54.3999C51.6449 55.4666 49.8671 55.9999 48.0004 55.9999C43.2004 56.1777 39.2893 52.3555 39.1115 47.6444V47.111H37.3337C37.4226 52.6221 41.6004 57.2444 47.1115 57.7777V60.4444H44.4449C43.9115 60.4444 43.556 60.7999 43.556 61.3333C43.556 61.8666 43.9115 62.2221 44.4449 62.2221H51.556C52.0893 62.2221 52.4449 61.8666 52.4449 61.3333C52.4449 60.7999 52.0893 60.4444 51.556 60.4444H48.8893V57.7777C50.8449 57.5999 52.8004 56.8888 54.4004 55.6444Z" fill="#328187"/>
</g>
<defs>
<clipPath id="clip0_2013_4376">
<rect width="32" height="32" fill="white" transform="translate(32 32)"/>
</clipPath>
</defs>
</svg>
