<svg width="353" height="193" viewBox="0 0 353 193" fill="none" xmlns="http://www.w3.org/2000/svg">
<path d="M351 176.011H351.513V175.498C351.513 79.0919 273.156 0.941144 176.5 0.941144C79.8443 0.941144 1.48704 79.0919 1.48704 175.498V176.011H2H176.5H351Z" fill="#F0F0F0" stroke="white" stroke-width="1.02591"/>
<path d="M307.71 176.625H308.736V175.599C308.736 102.508 249.484 43.2558 176.393 43.2558C103.302 43.2558 44.0499 102.508 44.0499 175.599V176.625H45.0758H176.393H307.71Z" fill="url(#paint0_linear_2032_2425)" stroke="white" stroke-width="2.05183"/>
<path d="M132.29 174.962C132.836 151.073 152.372 131.874 176.393 131.874C200.414 131.874 219.951 151.073 220.496 174.962H176.393H132.29Z" fill="white" stroke="white" stroke-width="2.05183"/>
<path d="M292.681 44.2817L175.589 166.386L58.4961 44.8013" stroke="white" stroke-width="2.05183" stroke-linejoin="bevel"/>
<circle cx="179.642" cy="177.642" r="14.7737" fill="#2F3337"/>
<path d="M193.131 168.007C181.477 152.237 170.29 161.436 166.153 168.007L179.642 101.204L193.131 168.007Z" fill="#2F3337" stroke="white" stroke-width="1.24797"/>
<path d="M20.3484 159.835L20.8545 156.315C20.9449 155.687 21.1282 155.133 21.4045 154.654C21.6822 154.166 22.0501 153.771 22.5084 153.469C22.9588 153.157 23.5028 152.948 24.1405 152.841C24.7702 152.724 25.4869 152.724 26.2906 152.839C27.0944 152.955 27.7865 153.158 28.367 153.449C28.9396 153.729 29.4025 154.084 29.7559 154.512C30.1013 154.929 30.3384 155.411 30.4673 155.958C30.5975 156.495 30.6174 157.078 30.527 157.706L30.0209 161.226L20.3484 159.835ZM28.9057 157.473C29.004 156.789 28.8831 156.22 28.543 155.766C28.195 155.301 27.6052 155.009 26.7738 154.889L25.2495 154.67C24.418 154.55 23.7745 154.665 23.3188 155.014C22.8551 155.353 22.5742 155.864 22.4759 156.548L22.2327 158.239L28.6626 159.163L28.9057 157.473Z" fill="#75808A"/>
<path d="M31.451 151.961L21.8932 149.926L23.2339 143.627L24.836 143.968L23.88 148.46L26.1942 148.952L27.0394 144.981L28.6415 145.322L27.7963 149.293L30.2337 149.812L31.1897 145.321L32.7918 145.662L31.451 151.961Z" fill="#75808A"/>
<path d="M33.7862 140.983L23.5149 141.409L24.0269 139.589L29.0147 139.437L32.3764 139.481L32.3878 139.441L29.4926 137.739L25.3164 135.007L25.8133 133.242L34.3551 138.962L33.7862 140.983Z" fill="#75808A"/>
<path d="M35.6029 133.834L26.3867 130.585L28.5278 124.511L30.0726 125.056L28.546 129.387L30.7774 130.173L32.1272 126.344L33.672 126.889L32.3222 130.718L34.6724 131.547L36.1991 127.216L37.7439 127.76L35.6029 133.834Z" fill="#75808A"/>
<path d="M39.3229 124.347L30.3133 120.563L31.0289 118.859L38.5283 122.009L40.0191 118.459L41.5293 119.094L39.3229 124.347Z" fill="#75808A"/>
<path d="M44.0013 114.369C43.7126 114.945 43.3552 115.418 42.929 115.789C42.5028 116.16 42.0142 116.416 41.4631 116.558C40.9161 116.69 40.3171 116.709 39.6661 116.612C39.0151 116.515 38.3183 116.28 37.5757 115.908C36.8415 115.54 36.2409 115.124 35.774 114.66C35.2987 114.192 34.9507 113.699 34.7301 113.181C34.5137 112.655 34.4266 112.11 34.469 111.547C34.5114 110.983 34.677 110.414 34.9656 109.838C35.2543 109.263 35.6117 108.789 36.0379 108.418C36.4641 108.047 36.9527 107.791 37.5038 107.65C38.055 107.509 38.6581 107.493 39.3133 107.602C39.9644 107.699 40.657 107.931 41.3912 108.299C42.1337 108.672 42.7385 109.09 43.2054 109.553C43.6766 110.009 44.0203 110.5 44.2368 111.026C44.4532 111.552 44.5403 112.097 44.4979 112.66C44.4555 113.224 44.2899 113.793 44.0013 114.369ZM42.5371 113.635C42.8508 113.009 42.8912 112.408 42.6581 111.832C42.4292 111.247 41.9393 110.767 41.1884 110.39L39.8368 109.712C39.0859 109.336 38.4078 109.231 37.8024 109.397C37.2011 109.555 36.7436 109.947 36.4298 110.572C36.1161 111.198 36.0736 111.803 36.3025 112.388C36.5356 112.964 37.0276 113.441 37.7785 113.817L39.1301 114.495C39.881 114.871 40.557 114.981 41.1583 114.823C41.7637 114.657 42.2233 114.261 42.5371 113.635Z" fill="#75808A"/>
<path d="M46.7855 108.689L38.3857 103.695L40.6321 99.9165C40.861 99.5314 41.1303 99.2246 41.4399 98.996C41.7462 98.7547 42.0801 98.5948 42.4415 98.5165C42.795 98.4335 43.1655 98.4312 43.5532 98.5096C43.9409 98.5881 44.3272 98.7418 44.7123 98.9707C45.1055 99.2044 45.4291 99.4728 45.6832 99.7759C45.9293 100.074 46.1043 100.401 46.2082 100.756C46.3041 101.106 46.3232 101.476 46.2656 101.865C46.2047 102.241 46.0598 102.622 45.8308 103.007L44.5288 105.197L47.7299 107.1L46.7855 108.689ZM43.1569 104.382L44.3731 102.336C44.5543 102.031 44.6172 101.743 44.5616 101.471C44.4981 101.194 44.3139 100.965 44.009 100.784L43.4555 100.455C43.1506 100.274 42.8655 100.224 42.6001 100.305C42.3347 100.386 42.1114 100.579 41.9302 100.884L40.714 102.929L43.1569 104.382Z" fill="#75808A"/>
<path d="M51.9592 100.842L50.7198 100.026L51.4282 98.9501L45.7457 95.2079L45.0373 96.2836L43.7979 95.4674L46.2388 91.7609L47.4782 92.5771L46.7621 93.6645L52.4446 97.4067L53.1607 96.3193L54.4001 97.1355L51.9592 100.842Z" fill="#75808A"/>
<path d="M53.7296 90.3068L51.4972 89.9151L51.4723 89.9489L57.1434 94.1238L56.1059 95.5331L48.2363 89.7398L49.4398 88.105L55.219 88.7087L57.4514 89.1004L57.4763 89.0666L51.8053 84.8918L52.8428 83.4825L60.7123 89.2758L59.5088 90.9106L53.7296 90.3068Z" fill="#75808A"/>
<path d="M65.0431 81.7903L65.0066 81.8328C65.3131 82.2066 65.4444 82.6698 65.4005 83.2225C65.3557 83.7621 65.0931 84.3116 64.6129 84.8711C64.236 85.3102 63.8051 85.6476 63.32 85.8832C62.841 86.1116 62.3236 86.2272 61.7678 86.2299C61.2111 86.2194 60.6285 86.0884 60.0203 85.837C59.412 85.5855 58.7963 85.1923 58.173 84.6574C57.5498 84.1225 57.0677 83.5735 56.7269 83.0104C56.3851 82.4342 56.1759 81.8611 56.0994 81.2911C56.0228 80.7211 56.0728 80.1613 56.2493 79.6117C56.4258 79.0621 56.7268 78.5394 57.1523 78.0436C57.7237 77.3779 58.3552 76.9359 59.0467 76.7177C59.7383 76.4995 60.4722 76.4898 61.2486 76.6887L60.9423 78.3999C60.5081 78.2609 60.0692 78.2348 59.6258 78.3216C59.1884 78.4013 58.7782 78.6642 58.3953 79.1104C57.9211 79.6629 57.7112 80.2514 57.7655 80.8761C57.8187 81.4876 58.1747 82.076 58.8334 82.6413L60.0232 83.6625C60.6748 84.2217 61.3134 84.4808 61.9391 84.4397C62.5647 84.3986 63.1177 84.0983 63.5979 83.5387C63.7863 83.3192 63.9378 83.0925 64.0523 82.8587C64.1598 82.6189 64.2212 82.3825 64.2365 82.1497C64.2519 81.9169 64.2181 81.6911 64.1352 81.4724C64.0524 81.2537 63.9047 81.0531 63.6922 80.8708L63.2141 80.4605L61.965 81.9159L60.7858 80.9038L63.1929 78.0992L67.2299 81.564L66.1905 82.7751L65.0431 81.7903Z" fill="#75808A"/>
<path d="M132.172 36.7984L129.329 27.4493L133.534 26.1701C133.963 26.0397 134.369 25.9944 134.751 26.0341C135.14 26.0621 135.495 26.1689 135.815 26.3545C136.132 26.5312 136.407 26.7792 136.641 27.0983C136.875 27.4175 137.057 27.7913 137.187 28.22C137.32 28.6575 137.378 29.0739 137.362 29.4691C137.343 29.8553 137.252 30.2146 137.09 30.5469C136.925 30.8703 136.69 31.1563 136.385 31.4051C136.086 31.6423 135.723 31.826 135.294 31.9564L132.857 32.6978L133.94 36.2607L132.172 36.7984ZM132.392 31.1709L134.669 30.4783C135.008 30.3751 135.249 30.2044 135.391 29.966C135.531 29.7188 135.549 29.4255 135.446 29.0861L135.258 28.47C135.155 28.1307 134.978 27.9016 134.727 27.7828C134.477 27.6639 134.181 27.6561 133.842 27.7593L131.565 28.4519L132.392 31.1709Z" fill="#75808A"/>
<path d="M143.103 33.6982L141.3 34.1018L139.166 24.5657L143.47 23.6025C143.907 23.5047 144.314 23.4854 144.69 23.5445C145.067 23.6037 145.403 23.7388 145.699 23.95C146.002 24.15 146.258 24.4179 146.467 24.7536C146.685 25.0874 146.844 25.4774 146.944 25.9237C147.091 26.5795 147.067 27.1778 146.873 27.7187C146.687 28.2575 146.321 28.6934 145.774 29.0263L148.596 32.4691L146.587 32.9185L143.989 29.6409L142.281 30.0231L143.103 33.6982ZM144.264 27.9868C144.61 27.9094 144.863 27.7571 145.023 27.5301C145.18 27.294 145.22 27.0029 145.143 26.6568L145.002 26.0284C144.925 25.6823 144.766 25.4405 144.524 25.3032C144.283 25.1659 143.99 25.136 143.644 25.2134L141.321 25.7332L141.942 28.5066L144.264 27.9868Z" fill="#75808A"/>
<path d="M154.975 31.6039C154.337 31.6924 153.745 31.6662 153.198 31.5253C152.651 31.3845 152.163 31.1271 151.734 30.7531C151.314 30.3779 150.96 29.8946 150.671 29.3034C150.381 28.7123 150.18 28.0053 150.065 27.1825C149.953 26.3689 149.955 25.6383 150.072 24.9907C150.189 24.3339 150.397 23.7678 150.699 23.2925C151.01 22.816 151.409 22.4355 151.898 22.1511C152.386 21.8666 152.949 21.6802 153.587 21.5917C154.225 21.5032 154.817 21.5294 155.364 21.6703C155.912 21.8111 156.4 22.0685 156.828 22.4425C157.257 22.8164 157.612 23.3043 157.894 23.906C158.183 24.4972 158.384 25.1996 158.497 26.0131C158.611 26.8359 158.609 27.5711 158.492 28.2187C158.383 28.8651 158.174 29.4265 157.863 29.9031C157.552 30.3796 157.153 30.7601 156.665 31.0445C156.176 31.329 155.613 31.5154 154.975 31.6039ZM154.75 29.9814C155.444 29.8852 155.962 29.5778 156.304 29.0592C156.656 28.5392 156.775 27.8633 156.659 27.0312L156.451 25.5336C156.336 24.7015 156.038 24.0832 155.558 23.6787C155.087 23.2729 154.505 23.118 153.812 23.2142C153.118 23.3103 152.596 23.6184 152.244 24.1383C151.901 24.657 151.788 25.3323 151.903 26.1644L152.111 27.662C152.226 28.4941 152.519 29.113 152.99 29.5188C153.47 29.9234 154.057 30.0776 154.75 29.9814Z" fill="#75808A"/>
<path d="M162.559 30.5272L161.957 20.7737L168.231 20.3864L168.332 22.0213L163.902 22.2948L164.048 24.6563L167.905 24.4182L168.006 26.0531L164.149 26.2912L164.404 30.4133L162.559 30.5272Z" fill="#75808A"/>
<path d="M170.77 30.1112L170.749 28.6274L172.037 28.6092L171.941 21.8059L170.653 21.824L170.632 20.3402L175.07 20.2777L175.091 21.7616L173.789 21.7799L173.884 28.5832L175.186 28.5649L175.207 30.0488L170.77 30.1112Z" fill="#75808A"/>
<path d="M181.055 30.3462C180.412 30.3217 179.833 30.1968 179.318 29.9717C178.813 29.7376 178.382 29.4036 178.025 28.9696C177.678 28.5361 177.418 28.0078 177.245 27.3847C177.073 26.7524 177.003 26.0258 177.034 25.2051C177.066 24.3844 177.191 23.6606 177.411 23.0339C177.632 22.3978 177.932 21.8723 178.312 21.4571C178.702 21.033 179.158 20.7188 179.679 20.5146C180.21 20.3107 180.797 20.221 181.441 20.2456C182.317 20.2791 183.038 20.4934 183.602 20.8885C184.166 21.2837 184.606 21.8656 184.922 22.6342L183.309 23.4132C183.186 22.9695 182.971 22.611 182.664 22.3378C182.357 22.0552 181.928 21.9034 181.378 21.8824C180.688 21.8561 180.129 22.0682 179.701 22.5189C179.282 22.9699 179.056 23.6151 179.024 24.4545L178.966 25.9934C178.933 26.8421 179.109 27.5026 179.492 27.9749C179.886 28.4382 180.427 28.6831 181.118 28.7094C181.668 28.7305 182.121 28.5983 182.478 28.313C182.843 28.0281 183.114 27.6695 183.289 27.2372L184.753 28.1757C184.37 28.8897 183.878 29.4406 183.274 29.8286C182.672 30.2072 181.932 30.3797 181.055 30.3462Z" fill="#75808A"/>
<path d="M186.673 30.5064L186.807 29.0285L188.09 29.1447L188.703 22.3684L187.421 22.2522L187.555 20.7743L191.975 21.1746L191.841 22.6526L190.544 22.5351L189.93 29.3114L191.227 29.4288L191.093 30.9068L186.673 30.5064Z" fill="#75808A"/>
<path d="M193.117 30.9045L194.481 21.2282L200.858 22.1272L200.63 23.7492L196.083 23.1081L195.752 25.451L199.773 26.0177L199.544 27.6397L195.524 27.0729L195.176 29.5405L199.723 30.1816L199.494 31.8035L193.117 30.9045Z" fill="#75808A"/>
<path d="M205.866 27.9199L205.321 25.72L205.28 25.7109L203.758 32.5865L202.049 32.2082L204.162 22.6672L206.144 23.106L207.931 28.635L208.476 30.8349L208.517 30.844L210.039 23.9685L211.748 24.3467L209.636 33.8877L207.654 33.4489L205.866 27.9199Z" fill="#75808A"/>
<path d="M219.147 28.1313L216.787 35.9152L215.018 35.3789L217.379 27.595L214.726 26.7904L215.202 25.2229L222.276 27.3683L221.8 28.9358L219.147 28.1313Z" fill="#75808A"/>
<path d="M297.752 93.6903L305.898 88.2924L309.371 93.5324L308.005 94.4372L305.554 90.7377L303.581 92.0446L305.716 95.2656L304.35 96.1704L302.216 92.9494L298.773 95.2308L297.752 93.6903Z" fill="#75808A"/>
<path d="M302.439 100.915L310.907 96.0375L311.829 97.6389L304.781 101.698L306.702 105.035L305.283 105.852L302.439 100.915Z" fill="#75808A"/>
<path d="M315.899 105.066L310.495 107.687C309.807 108.021 309.353 108.401 309.135 108.829C308.921 109.264 308.967 109.797 309.273 110.427C309.578 111.057 309.966 111.418 310.437 111.512C310.911 111.613 311.493 111.497 312.182 111.163L317.586 108.542L318.38 110.18L313.19 112.697C312.543 113.011 311.954 113.219 311.423 113.321C310.896 113.431 310.411 113.427 309.97 113.309C309.529 113.191 309.127 112.951 308.764 112.587C308.414 112.228 308.09 111.742 307.793 111.129C307.491 110.508 307.308 109.948 307.243 109.451C307.191 108.958 307.255 108.501 307.435 108.082C307.615 107.662 307.912 107.28 308.326 106.934C308.739 106.589 309.269 106.259 309.915 105.945L315.105 103.428L315.899 105.066Z" fill="#75808A"/>
<path d="M310.923 117.471L320.012 113.884L322.377 119.874L320.853 120.475L319.167 116.204L316.966 117.073L318.457 120.849L316.933 121.45L315.443 117.674L313.125 118.589L314.811 122.86L313.287 123.462L310.923 117.471Z" fill="#75808A"/>
<path d="M319.816 127.113L321.461 125.554L321.449 125.514L314.716 127.579L314.203 125.906L323.545 123.041L324.141 124.981L320.211 129.262L318.566 130.821L318.578 130.861L325.311 128.796L325.824 130.469L316.482 133.335L315.886 131.394L319.816 127.113Z" fill="#75808A"/>
<path d="M326.177 138.768L318.241 140.552L317.836 138.749L325.772 136.965L325.164 134.261L326.763 133.901L328.383 141.113L326.785 141.473L326.177 138.768Z" fill="#75808A"/>
<defs>
<linearGradient id="paint0_linear_2032_2425" x1="77.9051" y1="158.671" x2="272.316" y2="80.7017" gradientUnits="userSpaceOnUse">
<stop stop-color="#7DF6D3"/>
<stop offset="1" stop-color="#40A4AC"/>
</linearGradient>
</defs>
</svg>
