<svg width="352" height="197" viewBox="0 0 352 197" fill="none" xmlns="http://www.w3.org/2000/svg">
<path d="M350.5 176.511H351.013V175.998C351.013 79.5919 272.656 1.44114 176 1.44114C79.3443 1.44114 0.987043 79.5919 0.987043 175.998V176.511H1.5H176H350.5Z" fill="#F0F0F0" stroke="white" stroke-width="1.02591"/>
<path d="M307.21 177.125H308.236V176.099C308.236 103.008 248.984 43.7558 175.893 43.7558C102.802 43.7558 43.5499 103.008 43.5499 176.099V177.125H44.5758H175.893H307.21Z" fill="url(#paint0_linear_2032_2502)" stroke="white" stroke-width="2.05183"/>
<path d="M131.79 175.462C132.336 151.573 151.872 132.374 175.893 132.374C199.914 132.374 219.45 151.573 219.996 175.462H175.893H131.79Z" fill="white" stroke="white" stroke-width="2.05183"/>
<path d="M292.181 44.7817L175.089 166.886L57.9961 45.3013" stroke="white" stroke-width="2.05183" stroke-linejoin="bevel"/>
<circle cx="175.466" cy="175.341" r="15.1566" transform="rotate(-60 175.466 175.341)" fill="#2F3337"/>
<path d="M173.825 158.414C153.836 160.679 156.271 175.337 159.987 182.383L107.554 136.132L173.825 158.414Z" fill="#2F3337" stroke="white" stroke-width="1.28031"/>
<path d="M20.8484 159.335L21.3545 155.815C21.4449 155.187 21.6282 154.633 21.9045 154.154C22.1822 153.666 22.5501 153.271 23.0084 152.969C23.4588 152.657 24.0028 152.448 24.6405 152.341C25.2702 152.224 25.9869 152.224 26.7906 152.339C27.5944 152.455 28.2865 152.658 28.867 152.949C29.4396 153.229 29.9025 153.584 30.2559 154.012C30.6013 154.429 30.8384 154.911 30.9673 155.458C31.0975 155.995 31.1174 156.578 31.027 157.206L30.5209 160.726L20.8484 159.335ZM29.4057 156.973C29.504 156.289 29.3831 155.72 29.043 155.266C28.695 154.801 28.1052 154.509 27.2738 154.389L25.7495 154.17C24.918 154.05 24.2745 154.165 23.8188 154.514C23.3551 154.853 23.0742 155.364 22.9759 156.048L22.7327 157.739L29.1626 158.663L29.4057 156.973Z" fill="#75808A"/>
<path d="M31.951 151.461L22.3932 149.426L23.7339 143.127L25.336 143.468L24.38 147.96L26.6942 148.452L27.5394 144.481L29.1415 144.822L28.2963 148.793L30.7337 149.312L31.6897 144.821L33.2918 145.162L31.951 151.461Z" fill="#75808A"/>
<path d="M34.2862 140.483L24.0149 140.909L24.5269 139.089L29.5147 138.937L32.8764 138.981L32.8878 138.941L29.9926 137.239L25.8164 134.507L26.3133 132.742L34.8551 138.462L34.2862 140.483Z" fill="#75808A"/>
<path d="M36.1029 133.334L26.8867 130.085L29.0278 124.011L30.5726 124.556L29.046 128.887L31.2774 129.673L32.6272 125.844L34.172 126.389L32.8222 130.218L35.1724 131.047L36.6991 126.716L38.2439 127.26L36.1029 133.334Z" fill="#75808A"/>
<path d="M39.8229 123.847L30.8133 120.063L31.5289 118.359L39.0283 121.509L40.5191 117.959L42.0293 118.594L39.8229 123.847Z" fill="#75808A"/>
<path d="M44.5013 113.869C44.2126 114.445 43.8552 114.918 43.429 115.289C43.0028 115.66 42.5142 115.916 41.9631 116.058C41.4161 116.19 40.8171 116.209 40.1661 116.112C39.5151 116.015 38.8183 115.78 38.0757 115.408C37.3415 115.04 36.7409 114.624 36.274 114.16C35.7987 113.692 35.4507 113.199 35.2301 112.681C35.0137 112.155 34.9266 111.61 34.969 111.047C35.0114 110.483 35.177 109.914 35.4656 109.338C35.7543 108.763 36.1117 108.289 36.5379 107.918C36.9641 107.547 37.4527 107.291 38.0038 107.15C38.555 107.009 39.1581 106.993 39.8133 107.102C40.4644 107.199 41.157 107.431 41.8912 107.799C42.6337 108.172 43.2385 108.59 43.7054 109.053C44.1766 109.509 44.5203 110 44.7368 110.526C44.9532 111.052 45.0403 111.597 44.9979 112.16C44.9555 112.724 44.7899 113.293 44.5013 113.869ZM43.0371 113.135C43.3508 112.509 43.3912 111.908 43.1581 111.332C42.9292 110.747 42.4393 110.267 41.6884 109.89L40.3368 109.212C39.5859 108.836 38.9078 108.731 38.3024 108.897C37.7011 109.055 37.2436 109.447 36.9298 110.072C36.6161 110.698 36.5736 111.303 36.8025 111.888C37.0356 112.464 37.5276 112.941 38.2785 113.317L39.6301 113.995C40.381 114.371 41.057 114.481 41.6583 114.323C42.2637 114.157 42.7233 113.761 43.0371 113.135Z" fill="#75808A"/>
<path d="M47.2855 108.189L38.8857 103.195L41.1321 99.4165C41.361 99.0314 41.6303 98.7246 41.9399 98.496C42.2462 98.2547 42.5801 98.0948 42.9415 98.0165C43.295 97.9335 43.6655 97.9312 44.0532 98.0096C44.4409 98.0881 44.8272 98.2418 45.2123 98.4707C45.6055 98.7044 45.9291 98.9728 46.1832 99.2759C46.4293 99.5742 46.6043 99.9008 46.7082 100.256C46.8041 100.606 46.8232 100.976 46.7656 101.365C46.7047 101.741 46.5598 102.122 46.3308 102.507L45.0288 104.697L48.2299 106.6L47.2855 108.189ZM43.6569 103.882L44.8731 101.836C45.0543 101.531 45.1172 101.243 45.0616 100.971C44.9981 100.694 44.8139 100.465 44.509 100.284L43.9555 99.9548C43.6506 99.7736 43.3655 99.7235 43.1001 99.8046C42.8347 99.8857 42.6114 100.079 42.4302 100.384L41.214 102.429L43.6569 103.882Z" fill="#75808A"/>
<path d="M52.4592 100.342L51.2198 99.5258L51.9282 98.4501L46.2457 94.7079L45.5373 95.7836L44.2979 94.9674L46.7388 91.2609L47.9782 92.0771L47.2621 93.1645L52.9446 96.9067L53.6607 95.8193L54.9001 96.6355L52.4592 100.342Z" fill="#75808A"/>
<path d="M54.2296 89.8068L51.9972 89.4151L51.9723 89.4489L57.6434 93.6238L56.6059 95.0331L48.7363 89.2398L49.9398 87.605L55.719 88.2087L57.9514 88.6004L57.9763 88.5666L52.3053 84.3918L53.3428 82.9825L61.2123 88.7758L60.0088 90.4106L54.2296 89.8068Z" fill="#75808A"/>
<path d="M65.5431 81.2903L65.5066 81.3328C65.8131 81.7066 65.9444 82.1698 65.9005 82.7225C65.8557 83.2621 65.5931 83.8116 65.1129 84.3711C64.736 84.8102 64.3051 85.1476 63.82 85.3832C63.341 85.6116 62.8236 85.7272 62.2678 85.7299C61.7111 85.7194 61.1285 85.5884 60.5203 85.337C59.912 85.0855 59.2963 84.6923 58.673 84.1574C58.0498 83.6225 57.5677 83.0735 57.2269 82.5104C56.8851 81.9342 56.6759 81.3611 56.5994 80.7911C56.5228 80.2211 56.5728 79.6613 56.7493 79.1117C56.9258 78.5621 57.2268 78.0394 57.6523 77.5436C58.2237 76.8779 58.8552 76.4359 59.5467 76.2177C60.2383 75.9995 60.9722 75.9898 61.7486 76.1887L61.4423 77.8999C61.0081 77.7609 60.5692 77.7348 60.1258 77.8216C59.6884 77.9013 59.2782 78.1642 58.8953 78.6104C58.4211 79.1629 58.2112 79.7514 58.2655 80.3761C58.3187 80.9876 58.6747 81.576 59.3334 82.1413L60.5232 83.1625C61.1748 83.7217 61.8134 83.9808 62.4391 83.9397C63.0647 83.8986 63.6177 83.5983 64.0979 83.0387C64.2863 82.8192 64.4378 82.5925 64.5523 82.3587C64.6598 82.1189 64.7212 81.8825 64.7365 81.6497C64.7519 81.4169 64.7181 81.1911 64.6352 80.9724C64.5524 80.7537 64.4047 80.5531 64.1922 80.3708L63.7141 79.9605L62.465 81.4159L61.2858 80.4038L63.6929 77.5992L67.7299 81.064L66.6905 82.2751L65.5431 81.2903Z" fill="#75808A"/>
<path d="M131.672 37.2984L128.829 27.9493L133.034 26.6701C133.463 26.5397 133.869 26.4944 134.251 26.5341C134.64 26.5621 134.995 26.6689 135.315 26.8545C135.632 27.0312 135.907 27.2792 136.141 27.5983C136.375 27.9175 136.557 28.2913 136.687 28.72C136.82 29.1575 136.878 29.5739 136.862 29.9691C136.843 30.3553 136.752 30.7146 136.59 31.0469C136.425 31.3703 136.19 31.6563 135.885 31.9051C135.586 32.1423 135.223 32.326 134.794 32.4564L132.357 33.1978L133.44 36.7607L131.672 37.2984ZM131.892 31.6709L134.169 30.9783C134.508 30.8751 134.749 30.7044 134.891 30.466C135.031 30.2188 135.049 29.9255 134.946 29.5861L134.758 28.97C134.655 28.6307 134.478 28.4016 134.227 28.2828C133.977 28.1639 133.681 28.1561 133.342 28.2593L131.065 28.9519L131.892 31.6709Z" fill="#75808A"/>
<path d="M142.603 34.1982L140.8 34.6018L138.666 25.0657L142.969 24.1025C143.407 24.0047 143.814 23.9854 144.19 24.0445C144.567 24.1037 144.903 24.2388 145.199 24.45C145.502 24.65 145.758 24.9179 145.967 25.2536C146.185 25.5874 146.344 25.9774 146.444 26.4237C146.591 27.0795 146.567 27.6778 146.373 28.2187C146.187 28.7575 145.821 29.1934 145.274 29.5263L148.096 32.9691L146.087 33.4185L143.489 30.1409L141.781 30.5231L142.603 34.1982ZM143.764 28.4868C144.11 28.4094 144.363 28.2571 144.523 28.0301C144.68 27.794 144.72 27.5029 144.643 27.1568L144.502 26.5284C144.425 26.1823 144.265 25.9405 144.024 25.8032C143.783 25.6659 143.49 25.636 143.143 25.7134L140.821 26.2332L141.442 29.0066L143.764 28.4868Z" fill="#75808A"/>
<path d="M154.475 32.1039C153.837 32.1924 153.245 32.1662 152.698 32.0253C152.151 31.8845 151.663 31.6271 151.234 31.2531C150.814 30.8779 150.46 30.3946 150.171 29.8034C149.881 29.2123 149.68 28.5053 149.565 27.6825C149.453 26.8689 149.455 26.1383 149.572 25.4907C149.689 24.8339 149.897 24.2678 150.199 23.7925C150.51 23.316 150.909 22.9355 151.398 22.6511C151.886 22.3666 152.449 22.1802 153.087 22.0917C153.725 22.0032 154.317 22.0294 154.864 22.1703C155.412 22.3111 155.9 22.5685 156.328 22.9425C156.757 23.3164 157.112 23.8043 157.394 24.406C157.683 24.9972 157.884 25.6996 157.997 26.5131C158.111 27.3359 158.109 28.0711 157.992 28.7187C157.883 29.3651 157.674 29.9265 157.363 30.4031C157.052 30.8796 156.653 31.2601 156.165 31.5445C155.676 31.829 155.113 32.0154 154.475 32.1039ZM154.25 30.4814C154.944 30.3852 155.462 30.0778 155.804 29.5592C156.156 29.0392 156.275 28.3633 156.159 27.5312L155.951 26.0336C155.836 25.2015 155.538 24.5832 155.058 24.1787C154.587 23.7729 154.005 23.618 153.312 23.7142C152.618 23.8103 152.096 24.1184 151.744 24.6383C151.401 25.157 151.288 25.8323 151.403 26.6644L151.611 28.162C151.726 28.9941 152.019 29.613 152.49 30.0188C152.97 30.4234 153.557 30.5776 154.25 30.4814Z" fill="#75808A"/>
<path d="M162.059 31.0272L161.457 21.2737L167.731 20.8864L167.832 22.5213L163.402 22.7948L163.548 25.1563L167.405 24.9182L167.506 26.5531L163.649 26.7912L163.903 30.9133L162.059 31.0272Z" fill="#75808A"/>
<path d="M170.27 30.6112L170.249 29.1274L171.537 29.1092L171.441 22.3059L170.153 22.324L170.132 20.8402L174.57 20.7777L174.591 22.2616L173.289 22.2799L173.384 29.0832L174.686 29.0649L174.707 30.5488L170.27 30.6112Z" fill="#75808A"/>
<path d="M180.555 30.8462C179.912 30.8217 179.333 30.6968 178.818 30.4717C178.313 30.2376 177.882 29.9036 177.525 29.4696C177.178 29.0361 176.918 28.5078 176.745 27.8847C176.573 27.2524 176.503 26.5258 176.534 25.7051C176.566 24.8844 176.691 24.1606 176.911 23.5339C177.132 22.8978 177.432 22.3723 177.812 21.9571C178.202 21.533 178.658 21.2188 179.179 21.0146C179.71 20.8107 180.297 20.721 180.941 20.7456C181.817 20.7791 182.538 20.9934 183.102 21.3885C183.666 21.7837 184.106 22.3656 184.422 23.1342L182.809 23.9132C182.686 23.4695 182.471 23.111 182.164 22.8378C181.857 22.5552 181.428 22.4034 180.878 22.3824C180.188 22.3561 179.629 22.5682 179.201 23.0189C178.782 23.4699 178.556 24.1151 178.524 24.9545L178.466 26.4934C178.433 27.3421 178.609 28.0026 178.992 28.4749C179.386 28.9382 179.927 29.1831 180.618 29.2094C181.168 29.2305 181.621 29.0983 181.978 28.813C182.343 28.5281 182.614 28.1695 182.789 27.7372L184.253 28.6757C183.87 29.3897 183.378 29.9406 182.774 30.3286C182.172 30.7072 181.432 30.8797 180.555 30.8462Z" fill="#75808A"/>
<path d="M186.173 31.0064L186.307 29.5285L187.59 29.6447L188.203 22.8684L186.921 22.7522L187.055 21.2743L191.475 21.6746L191.341 23.1526L190.044 23.0351L189.43 29.8114L190.727 29.9288L190.593 31.4068L186.173 31.0064Z" fill="#75808A"/>
<path d="M192.617 31.4045L193.981 21.7282L200.358 22.6272L200.13 24.2492L195.583 23.6081L195.252 25.951L199.273 26.5177L199.044 28.1397L195.024 27.5729L194.676 30.0405L199.223 30.6816L198.994 32.3035L192.617 31.4045Z" fill="#75808A"/>
<path d="M205.366 28.4199L204.821 26.22L204.78 26.2109L203.258 33.0865L201.549 32.7082L203.662 23.1672L205.644 23.606L207.431 29.135L207.976 31.3349L208.017 31.344L209.539 24.4685L211.248 24.8467L209.136 34.3877L207.154 33.9489L205.366 28.4199Z" fill="#75808A"/>
<path d="M218.647 28.6313L216.287 36.4152L214.518 35.8789L216.879 28.095L214.226 27.2904L214.702 25.7229L221.776 27.8683L221.3 29.4358L218.647 28.6313Z" fill="#75808A"/>
<path d="M297.252 94.1903L305.398 88.7924L308.87 94.0324L307.505 94.9372L305.054 91.2377L303.081 92.5446L305.216 95.7656L303.85 96.6704L301.716 93.4494L298.273 95.7308L297.252 94.1903Z" fill="#75808A"/>
<path d="M301.939 101.415L310.407 96.5375L311.329 98.1389L304.281 102.198L306.202 105.535L304.783 106.352L301.939 101.415Z" fill="#75808A"/>
<path d="M315.399 105.566L309.995 108.187C309.307 108.521 308.853 108.901 308.635 109.329C308.421 109.764 308.467 110.297 308.773 110.927C309.078 111.557 309.466 111.918 309.937 112.012C310.411 112.113 310.993 111.997 311.682 111.663L317.086 109.042L317.88 110.68L312.69 113.197C312.043 113.511 311.454 113.719 310.923 113.821C310.396 113.931 309.911 113.927 309.47 113.809C309.029 113.691 308.627 113.451 308.264 113.087C307.914 112.728 307.59 112.242 307.293 111.629C306.991 111.008 306.808 110.448 306.743 109.951C306.691 109.458 306.755 109.001 306.935 108.582C307.115 108.162 307.412 107.78 307.825 107.434C308.239 107.089 308.769 106.759 309.415 106.445L314.605 103.928L315.399 105.566Z" fill="#75808A"/>
<path d="M310.423 117.971L319.512 114.384L321.876 120.374L320.353 120.975L318.667 116.704L316.466 117.573L317.957 121.349L316.433 121.95L314.943 118.174L312.625 119.089L314.31 123.36L312.787 123.962L310.423 117.971Z" fill="#75808A"/>
<path d="M319.316 127.613L320.961 126.054L320.949 126.014L314.216 128.079L313.703 126.406L323.045 123.541L323.641 125.481L319.711 129.762L318.066 131.321L318.078 131.361L324.811 129.296L325.324 130.969L315.982 133.835L315.386 131.894L319.316 127.613Z" fill="#75808A"/>
<path d="M325.677 139.268L317.741 141.052L317.336 139.249L325.272 137.465L324.664 134.761L326.263 134.401L327.883 141.613L326.285 141.973L325.677 139.268Z" fill="#75808A"/>
<defs>
<linearGradient id="paint0_linear_2032_2502" x1="77.4051" y1="159.171" x2="271.816" y2="81.2017" gradientUnits="userSpaceOnUse">
<stop stop-color="#7DF6D3"/>
<stop offset="1" stop-color="#40A4AC"/>
</linearGradient>
</defs>
</svg>
