<svg width="353" height="196" viewBox="0 0 353 196" fill="none" xmlns="http://www.w3.org/2000/svg">
<path d="M351 176.011H351.513V175.498C351.513 79.0919 273.156 0.941144 176.5 0.941144C79.8443 0.941144 1.48704 79.0919 1.48704 175.498V176.011H2H176.5H351Z" fill="#F0F0F0" stroke="white" stroke-width="1.02591"/>
<path d="M307.71 176.625H308.736V175.599C308.736 102.508 249.484 43.2558 176.393 43.2558C103.302 43.2558 44.0499 102.508 44.0499 175.599V176.625H45.0758H176.393H307.71Z" fill="url(#paint0_linear_2032_2385)" stroke="white" stroke-width="2.05183"/>
<path d="M132.29 174.962C132.836 151.073 152.372 131.874 176.393 131.874C200.414 131.874 219.951 151.073 220.496 174.962H176.393H132.29Z" fill="white" stroke="white" stroke-width="2.05183"/>
<path d="M292.681 44.2817L175.589 166.386L58.4961 44.8013" stroke="white" stroke-width="2.05183" stroke-linejoin="bevel"/>
<circle cx="177.181" cy="175.013" r="14.7737" transform="rotate(60 177.181 175.013)" fill="#2F3337"/>
<path d="M192.27 181.877C200.1 163.899 186.54 158.811 178.781 158.514L243.379 136.794L192.27 181.877Z" fill="#2F3337" stroke="white" stroke-width="1.24797"/>
<path d="M22.3484 158.835L22.8545 155.315C22.9449 154.687 23.1282 154.133 23.4045 153.654C23.6822 153.166 24.0501 152.771 24.5084 152.469C24.9588 152.157 25.5028 151.948 26.1405 151.841C26.7702 151.724 27.4869 151.724 28.2906 151.839C29.0944 151.955 29.7865 152.158 30.367 152.449C30.9396 152.729 31.4025 153.084 31.7559 153.512C32.1013 153.929 32.3384 154.411 32.4673 154.958C32.5975 155.495 32.6174 156.078 32.527 156.706L32.0209 160.226L22.3484 158.835ZM30.9057 156.473C31.004 155.789 30.8831 155.22 30.543 154.766C30.195 154.301 29.6052 154.009 28.7738 153.889L27.2495 153.67C26.418 153.55 25.7745 153.665 25.3188 154.014C24.8551 154.353 24.5742 154.864 24.4759 155.548L24.2327 157.239L30.6626 158.163L30.9057 156.473Z" fill="#75808A"/>
<path d="M33.451 150.961L23.8932 148.926L25.2339 142.627L26.836 142.968L25.88 147.46L28.1942 147.952L29.0394 143.981L30.6415 144.322L29.7963 148.293L32.2337 148.812L33.1897 144.321L34.7918 144.662L33.451 150.961Z" fill="#75808A"/>
<path d="M35.7862 139.983L25.5149 140.409L26.0269 138.589L31.0147 138.437L34.3764 138.481L34.3878 138.441L31.4926 136.739L27.3164 134.007L27.8133 132.242L36.3551 137.962L35.7862 139.983Z" fill="#75808A"/>
<path d="M37.6029 132.834L28.3867 129.585L30.5278 123.511L32.0726 124.056L30.546 128.387L32.7774 129.173L34.1272 125.344L35.672 125.889L34.3222 129.718L36.6724 130.547L38.1991 126.216L39.7439 126.76L37.6029 132.834Z" fill="#75808A"/>
<path d="M41.3229 123.347L32.3133 119.563L33.0289 117.859L40.5283 121.009L42.0191 117.459L43.5293 118.094L41.3229 123.347Z" fill="#75808A"/>
<path d="M46.0013 113.369C45.7126 113.945 45.3552 114.418 44.929 114.789C44.5028 115.16 44.0142 115.416 43.4631 115.558C42.9161 115.69 42.3171 115.709 41.6661 115.612C41.0151 115.515 40.3183 115.28 39.5757 114.908C38.8415 114.54 38.2409 114.124 37.774 113.66C37.2987 113.192 36.9507 112.699 36.7301 112.181C36.5137 111.655 36.4266 111.11 36.469 110.547C36.5114 109.983 36.677 109.414 36.9656 108.838C37.2543 108.263 37.6117 107.789 38.0379 107.418C38.4641 107.047 38.9527 106.791 39.5038 106.65C40.055 106.509 40.6581 106.493 41.3133 106.602C41.9644 106.699 42.657 106.931 43.3912 107.299C44.1337 107.672 44.7385 108.09 45.2054 108.553C45.6766 109.009 46.0203 109.5 46.2368 110.026C46.4532 110.552 46.5403 111.097 46.4979 111.66C46.4555 112.224 46.2899 112.793 46.0013 113.369ZM44.5371 112.635C44.8508 112.009 44.8912 111.408 44.6581 110.832C44.4292 110.247 43.9393 109.767 43.1884 109.39L41.8368 108.712C41.0859 108.336 40.4078 108.231 39.8024 108.397C39.2011 108.555 38.7436 108.947 38.4298 109.572C38.1161 110.198 38.0736 110.803 38.3025 111.388C38.5356 111.964 39.0276 112.441 39.7785 112.817L41.1301 113.495C41.881 113.871 42.557 113.981 43.1583 113.823C43.7637 113.657 44.2233 113.261 44.5371 112.635Z" fill="#75808A"/>
<path d="M48.7855 107.689L40.3857 102.695L42.6321 98.9165C42.861 98.5314 43.1303 98.2246 43.4399 97.996C43.7462 97.7547 44.0801 97.5948 44.4415 97.5165C44.795 97.4335 45.1655 97.4312 45.5532 97.5096C45.9409 97.5881 46.3272 97.7418 46.7123 97.9707C47.1055 98.2044 47.4291 98.4728 47.6832 98.7759C47.9293 99.0742 48.1043 99.4008 48.2082 99.7557C48.3041 100.106 48.3232 100.476 48.2656 100.865C48.2047 101.241 48.0598 101.622 47.8308 102.007L46.5288 104.197L49.7299 106.1L48.7855 107.689ZM45.1569 103.382L46.3731 101.336C46.5543 101.031 46.6172 100.743 46.5616 100.471C46.4981 100.194 46.3139 99.9651 46.009 99.7839L45.4555 99.4548C45.1506 99.2736 44.8655 99.2235 44.6001 99.3046C44.3347 99.3857 44.1114 99.5787 43.9302 99.8836L42.714 101.929L45.1569 103.382Z" fill="#75808A"/>
<path d="M53.9592 99.842L52.7198 99.0258L53.4282 97.9501L47.7457 94.2079L47.0373 95.2836L45.7979 94.4674L48.2388 90.7609L49.4782 91.5771L48.7621 92.6645L54.4446 96.4067L55.1607 95.3193L56.4001 96.1355L53.9592 99.842Z" fill="#75808A"/>
<path d="M55.7296 89.3068L53.4972 88.9151L53.4723 88.9489L59.1434 93.1238L58.1059 94.5331L50.2363 88.7398L51.4398 87.105L57.219 87.7087L59.4514 88.1004L59.4763 88.0666L53.8053 83.8918L54.8428 82.4825L62.7123 88.2758L61.5088 89.9106L55.7296 89.3068Z" fill="#75808A"/>
<path d="M67.0431 80.7903L67.0066 80.8328C67.3131 81.2066 67.4444 81.6698 67.4005 82.2225C67.3557 82.7621 67.0931 83.3116 66.6129 83.8711C66.236 84.3102 65.8051 84.6476 65.32 84.8832C64.841 85.1116 64.3236 85.2272 63.7678 85.2299C63.2111 85.2194 62.6285 85.0884 62.0203 84.837C61.412 84.5855 60.7963 84.1923 60.173 83.6574C59.5498 83.1225 59.0677 82.5735 58.7269 82.0104C58.3851 81.4342 58.1759 80.8611 58.0994 80.2911C58.0228 79.7211 58.0728 79.1613 58.2493 78.6117C58.4258 78.0621 58.7268 77.5394 59.1523 77.0436C59.7237 76.3779 60.3552 75.9359 61.0467 75.7177C61.7383 75.4995 62.4722 75.4898 63.2486 75.6887L62.9423 77.3999C62.5081 77.2609 62.0692 77.2348 61.6258 77.3216C61.1884 77.4013 60.7782 77.6642 60.3953 78.1104C59.9211 78.6629 59.7112 79.2514 59.7655 79.8761C59.8187 80.4876 60.1747 81.076 60.8334 81.6413L62.0232 82.6625C62.6748 83.2217 63.3134 83.4808 63.9391 83.4397C64.5647 83.3986 65.1177 83.0983 65.5979 82.5387C65.7863 82.3192 65.9378 82.0925 66.0523 81.8587C66.1598 81.6189 66.2212 81.3825 66.2365 81.1497C66.2519 80.9169 66.2181 80.6911 66.1352 80.4724C66.0524 80.2537 65.9047 80.0531 65.6922 79.8708L65.2141 79.4605L63.965 80.9159L62.7858 79.9038L65.1929 77.0992L69.2299 80.564L68.1905 81.7751L67.0431 80.7903Z" fill="#75808A"/>
<path d="M132.172 36.7984L129.329 27.4493L133.534 26.1701C133.963 26.0397 134.369 25.9944 134.751 26.0341C135.14 26.0621 135.495 26.1689 135.815 26.3545C136.132 26.5312 136.407 26.7792 136.641 27.0983C136.875 27.4175 137.057 27.7913 137.187 28.22C137.32 28.6575 137.378 29.0739 137.362 29.4691C137.343 29.8553 137.252 30.2146 137.09 30.5469C136.925 30.8703 136.69 31.1563 136.385 31.4051C136.086 31.6423 135.723 31.826 135.294 31.9564L132.857 32.6978L133.94 36.2607L132.172 36.7984ZM132.392 31.1709L134.669 30.4783C135.008 30.3751 135.249 30.2044 135.391 29.966C135.531 29.7188 135.549 29.4255 135.446 29.0861L135.258 28.47C135.155 28.1307 134.978 27.9016 134.727 27.7828C134.477 27.6639 134.181 27.6561 133.842 27.7593L131.565 28.4519L132.392 31.1709Z" fill="#75808A"/>
<path d="M143.103 33.6982L141.3 34.1018L139.166 24.5657L143.47 23.6025C143.907 23.5047 144.314 23.4854 144.69 23.5445C145.067 23.6037 145.403 23.7388 145.699 23.95C146.002 24.15 146.258 24.4179 146.467 24.7536C146.685 25.0874 146.844 25.4774 146.944 25.9237C147.091 26.5795 147.067 27.1778 146.873 27.7187C146.687 28.2575 146.321 28.6934 145.774 29.0263L148.596 32.4691L146.587 32.9185L143.989 29.6409L142.281 30.0231L143.103 33.6982ZM144.264 27.9868C144.61 27.9094 144.863 27.7571 145.023 27.5301C145.18 27.294 145.22 27.0029 145.143 26.6568L145.002 26.0284C144.925 25.6823 144.766 25.4405 144.524 25.3032C144.283 25.1659 143.99 25.136 143.644 25.2134L141.321 25.7332L141.942 28.5066L144.264 27.9868Z" fill="#75808A"/>
<path d="M154.975 31.6039C154.337 31.6924 153.745 31.6662 153.198 31.5253C152.651 31.3845 152.163 31.1271 151.734 30.7531C151.314 30.3779 150.96 29.8946 150.671 29.3034C150.381 28.7123 150.18 28.0053 150.065 27.1825C149.953 26.3689 149.955 25.6383 150.072 24.9907C150.189 24.3339 150.397 23.7678 150.699 23.2925C151.01 22.816 151.409 22.4355 151.898 22.1511C152.386 21.8666 152.949 21.6802 153.587 21.5917C154.225 21.5032 154.817 21.5294 155.364 21.6703C155.912 21.8111 156.4 22.0685 156.828 22.4425C157.257 22.8164 157.612 23.3043 157.894 23.906C158.183 24.4972 158.384 25.1996 158.497 26.0131C158.611 26.8359 158.609 27.5711 158.492 28.2187C158.383 28.8651 158.174 29.4265 157.863 29.9031C157.552 30.3796 157.153 30.7601 156.665 31.0445C156.176 31.329 155.613 31.5154 154.975 31.6039ZM154.75 29.9814C155.444 29.8852 155.962 29.5778 156.304 29.0592C156.656 28.5392 156.775 27.8633 156.659 27.0312L156.451 25.5336C156.336 24.7015 156.038 24.0832 155.558 23.6787C155.087 23.2729 154.505 23.118 153.812 23.2142C153.118 23.3103 152.596 23.6184 152.244 24.1383C151.901 24.657 151.788 25.3323 151.903 26.1644L152.111 27.662C152.226 28.4941 152.519 29.113 152.99 29.5188C153.47 29.9234 154.057 30.0776 154.75 29.9814Z" fill="#75808A"/>
<path d="M162.559 30.5272L161.957 20.7737L168.231 20.3864L168.332 22.0213L163.902 22.2948L164.048 24.6563L167.905 24.4182L168.006 26.0531L164.149 26.2912L164.404 30.4133L162.559 30.5272Z" fill="#75808A"/>
<path d="M170.77 30.1112L170.749 28.6274L172.037 28.6092L171.941 21.8059L170.653 21.824L170.632 20.3402L175.07 20.2777L175.091 21.7616L173.789 21.7799L173.884 28.5832L175.186 28.5649L175.207 30.0488L170.77 30.1112Z" fill="#75808A"/>
<path d="M181.055 30.3462C180.412 30.3217 179.833 30.1968 179.318 29.9717C178.813 29.7376 178.382 29.4036 178.025 28.9696C177.678 28.5361 177.418 28.0078 177.245 27.3847C177.073 26.7524 177.003 26.0258 177.034 25.2051C177.066 24.3844 177.191 23.6606 177.411 23.0339C177.632 22.3978 177.932 21.8723 178.312 21.4571C178.702 21.033 179.158 20.7188 179.679 20.5146C180.21 20.3107 180.797 20.221 181.441 20.2456C182.317 20.2791 183.038 20.4934 183.602 20.8885C184.166 21.2837 184.606 21.8656 184.922 22.6342L183.309 23.4132C183.186 22.9695 182.971 22.611 182.664 22.3378C182.357 22.0552 181.928 21.9034 181.378 21.8824C180.688 21.8561 180.129 22.0682 179.701 22.5189C179.282 22.9699 179.056 23.6151 179.024 24.4545L178.966 25.9934C178.933 26.8421 179.109 27.5026 179.492 27.9749C179.886 28.4382 180.427 28.6831 181.118 28.7094C181.668 28.7305 182.121 28.5983 182.478 28.313C182.843 28.0281 183.114 27.6695 183.289 27.2372L184.753 28.1757C184.37 28.8897 183.878 29.4406 183.274 29.8286C182.672 30.2072 181.932 30.3797 181.055 30.3462Z" fill="#75808A"/>
<path d="M186.673 30.5064L186.807 29.0285L188.09 29.1447L188.703 22.3684L187.421 22.2522L187.555 20.7743L191.975 21.1746L191.841 22.6526L190.544 22.5351L189.93 29.3114L191.227 29.4288L191.093 30.9068L186.673 30.5064Z" fill="#75808A"/>
<path d="M193.117 30.9045L194.481 21.2282L200.858 22.1272L200.63 23.7492L196.083 23.1081L195.752 25.451L199.773 26.0177L199.544 27.6397L195.524 27.0729L195.176 29.5405L199.723 30.1816L199.494 31.8035L193.117 30.9045Z" fill="#75808A"/>
<path d="M205.866 27.9199L205.321 25.72L205.28 25.7109L203.758 32.5865L202.049 32.2082L204.162 22.6672L206.144 23.106L207.931 28.635L208.476 30.8349L208.517 30.844L210.039 23.9685L211.748 24.3467L209.636 33.8877L207.654 33.4489L205.866 27.9199Z" fill="#75808A"/>
<path d="M219.147 28.1313L216.787 35.9152L215.018 35.3789L217.379 27.595L214.726 26.7904L215.202 25.2229L222.276 27.3683L221.8 28.9358L219.147 28.1313Z" fill="#75808A"/>
<path d="M297.752 93.6903L305.898 88.2924L309.371 93.5324L308.005 94.4372L305.554 90.7377L303.581 92.0446L305.716 95.2656L304.35 96.1704L302.216 92.9494L298.773 95.2308L297.752 93.6903Z" fill="#75808A"/>
<path d="M302.439 100.915L310.907 96.0375L311.829 97.6389L304.781 101.698L306.702 105.035L305.283 105.852L302.439 100.915Z" fill="#75808A"/>
<path d="M315.899 105.066L310.495 107.687C309.807 108.021 309.353 108.401 309.135 108.829C308.921 109.264 308.967 109.797 309.273 110.427C309.578 111.057 309.966 111.418 310.437 111.512C310.911 111.613 311.493 111.497 312.182 111.163L317.586 108.542L318.38 110.18L313.19 112.697C312.543 113.011 311.954 113.219 311.423 113.321C310.896 113.431 310.411 113.427 309.97 113.309C309.529 113.191 309.127 112.951 308.764 112.587C308.414 112.228 308.09 111.742 307.793 111.129C307.491 110.508 307.308 109.948 307.243 109.451C307.191 108.958 307.255 108.501 307.435 108.082C307.615 107.662 307.912 107.28 308.326 106.934C308.739 106.589 309.269 106.259 309.915 105.945L315.105 103.428L315.899 105.066Z" fill="#75808A"/>
<path d="M310.923 117.471L320.012 113.884L322.377 119.874L320.853 120.475L319.167 116.204L316.966 117.073L318.457 120.849L316.933 121.45L315.443 117.674L313.125 118.589L314.811 122.86L313.287 123.462L310.923 117.471Z" fill="#75808A"/>
<path d="M319.816 127.113L321.461 125.554L321.449 125.514L314.716 127.579L314.203 125.906L323.545 123.041L324.141 124.981L320.211 129.262L318.566 130.821L318.578 130.861L325.311 128.796L325.824 130.469L316.482 133.335L315.886 131.394L319.816 127.113Z" fill="#75808A"/>
<path d="M326.177 138.768L318.241 140.552L317.836 138.749L325.772 136.965L325.164 134.261L326.763 133.901L328.383 141.113L326.785 141.473L326.177 138.768Z" fill="#75808A"/>
<defs>
<linearGradient id="paint0_linear_2032_2385" x1="77.9051" y1="158.671" x2="272.316" y2="80.7017" gradientUnits="userSpaceOnUse">
<stop stop-color="#7DF6D3"/>
<stop offset="1" stop-color="#40A4AC"/>
</linearGradient>
</defs>
</svg>
